<svg height="800px" width="800px" version="1.1" id="Layer_1" xmlns="http://www.w3.org/2000/svg" xmlns:xlink="http://www.w3.org/1999/xlink" 
	 viewBox="0 0 512 512" xml:space="preserve">
<path style="fill:#6E6057;" d="M489.739,33.391H22.261c-9.217,0-16.696-7.473-16.696-16.696S13.044,0,22.261,0h467.478
	c9.217,0,16.696,7.473,16.696,16.696S498.956,33.391,489.739,33.391z"/>
<path style="fill:#615349;" d="M489.739,0H256v33.391h233.739c9.217,0,16.696-7.473,16.696-16.696S498.956,0,489.739,0z"/>
<path style="fill:#6E6057;" d="M256,111.304c-9.217,0-16.696-7.473-16.696-16.696V16.696C239.304,7.473,246.783,0,256,0
	s16.696,7.473,16.696,16.696v77.913C272.696,103.831,265.217,111.304,256,111.304z"/>
<path style="fill:#615349;" d="M272.696,94.609V16.696C272.696,7.473,265.217,0,256,0v111.304
	C265.217,111.304,272.696,103.831,272.696,94.609z"/>
<path style="fill:#EE8700;" d="M429.23,512H306.202c-0.063,0-0.115-0.051-0.115-0.115v-83.364c0-8.983-2.239-17.402-6.653-25.021
	c-2.99-5.163-3-11.532-0.022-16.707s8.5-8.359,14.467-8.359h140.914c4.707,0,9.185,1.983,12.359,5.467
	c3.163,3.478,4.707,8.136,4.261,12.816c-3.551,37.219-12.603,72.697-26.893,105.455C441.89,508.199,435.805,512,429.23,512z"/>
<path style="fill:#FFA733;" d="M205.798,512H82.77c-6.576,0-12.66-3.801-15.29-9.828c-14.29-32.758-23.343-68.236-26.893-105.455
	c-0.445-4.679,1.097-9.337,4.261-12.816c3.174-3.484,7.652-5.467,12.359-5.467h140.914c5.967,0,11.489,3.184,14.467,8.359
	s2.967,11.543-0.022,16.707c-4.413,7.62-6.653,16.039-6.653,25.022v83.364C205.913,511.949,205.862,512,205.798,512z"/>
<path style="fill:#EBB33C;" d="M469.736,411.826H303.626c-0.066,0-0.125-0.042-0.149-0.102c-3.031-7.434-6.847-13.346-12.085-18.592
	c-15.508-15.643-39.544-19.631-61.946-7.906c-6.831,3.575-12.946,9.038-15.853,16.178c-2.598,6.381-8.751,10.424-15.472,10.424
	H42.264c-2.195-16.728-3.308-33.753-3.308-50.088c0-28.184,3.214-56.385,9.532-83.478H463.51
	c6.318,27.094,9.532,55.294,9.532,83.478C473.043,378.074,471.93,395.099,469.736,411.826z"/>
<path style="fill:#F0C94B;" d="M469.703,311.652H42.297c6.918-49.692,23.166-94.868,48.034-133.565h331.337
	C446.536,216.784,462.785,261.96,469.703,311.652z"/>
<path style="fill:#F6DF5A;" d="M440.154,211.478H71.846C112.196,127.13,180.986,77.913,256,77.913S399.804,127.13,440.154,211.478z"
	/>
<path style="fill:#DF9B33;" d="M256,278.261v100.256c13.419,0.003,25.983,5.122,35.391,14.613
	c5.238,5.247,9.055,11.159,12.084,18.592c0.026,0.061,0.085,0.104,0.149,0.104h166.112c2.193-16.728,3.307-33.753,3.307-50.087
	c0-28.184-3.214-56.385-9.532-83.478H256z"/>
<path style="fill:#E8B33C;" d="M256,311.652h213.702c-6.918-49.692-23.166-94.868-48.035-133.565H256V311.652z"/>
<path style="fill:#F0CA45;" d="M440.155,211.478C399.804,127.13,331.014,77.913,256,77.913v133.565H440.155z"/>
<path style="fill:#95673F;" d="M339.478,512H172.522v-83.478c0-14.728,3.859-29.168,11.153-41.761
	c14.956-25.739,42.663-41.717,72.326-41.717c22.402,0,43.381,8.712,59.055,24.533c5.077,5.077,9.543,10.848,13.217,17.092
	c7.347,12.685,11.206,27.126,11.206,41.854V512z"/>
<path style="fill:#875334;" d="M339.478,512v-83.478c0-14.728-3.859-29.168-11.206-41.854c-3.674-6.244-8.141-12.016-13.217-17.092
	c-15.674-15.821-36.653-24.533-59.055-24.533V512H339.478z"/>
</svg>